<svg id="Calque_1" data-name="Calque 1" xmlns="http://www.w3.org/2000/svg" viewBox="0 0 283.46 368.5"><defs><style>.cls-1{fill:#1f1332;}</style></defs><path class="cls-1" d="M282.81,208.14c-6-8.83-25.65-37.55-27.9-40.64-2.67-3.66-16.33-21.28-34.32-21.61-15.41-.28-34.67,33.13-33.73,33.91,2.28-2.63,12.06-14.31,17.73-15.29,7.66-1.33,20.66,17,20.66,17-18.06-2.34-34,14.26-41.81,24.3-12.38-4.24-24.89-11.54-34.25-24-20.88-27.69-11-62.81-11.75-63.22-.45-.23-25.1,69.76,8.08,92.14H100.8c-33.3,0-30.54-25.18-30.89-25.1-3.27,15.59,6.67,43.22,27.82,43.22h113a3.78,3.78,0,0,0,2.67-1.11l10-10a3.77,3.77,0,0,0-2.71-6.43A116.69,116.69,0,0,1,190,207.73a51.46,51.46,0,0,1,28.23-8.31c18.8,0,38.57,19.1,45.54,26.52a3.79,3.79,0,0,0,5.43.09l13.14-13.11A3.76,3.76,0,0,0,282.81,208.14Z" transform="translate(0 0)"/><path class="cls-1" d="M20.3,135.25a27.75,27.75,0,0,0-3.12,1h0C2.76,141.83-3.16,158,1.63,173.48,8.6,196,40,199.26,40.27,199.29v0c-2.66,24.26-24.91,44.52-23.39,45,.68.21,12.66-9.1,17-13.74,19-20.31,25.58-43.24,25.42-59.07C59.07,150.7,37,130.93,20.3,135.25Zm-8,20.28c22.33-2,26,20.28,26,20.28C13.63,178.14,12.3,155.53,12.3,155.53Z" transform="translate(0 0)"/><path class="cls-1" d="M129.52,208.27h9.11c-11-10.78-14.31-26.8-14.19-42.35,0-3.28.2-6.53.48-9.7-1.94-2.86-3.9-5.73-5.86-8.64C65.73,68.75,109.88,18,123.42.24c4-5.31-82.68,76.93-19.87,165.24C113.72,179.78,122,194.44,129.52,208.27Z" transform="translate(0 0)"/><path class="cls-1" d="M159.42,231.29H141.11c13,28.1,21.24,52.45,20.12,68.64-2.46,35.78-26.14,69.23-25.4,68.56,5.26-4.72,25.7-25.57,37-72.92,5.53-23.09,2.93-44-4.51-64.28Z" transform="translate(0 0)"/><path class="cls-1" d="M238.19,209.84a1.38,1.38,0,0,0-1.94,0l-8.46,8.44a1.37,1.37,0,0,0,0,1.94l8.46,8.44a1.4,1.4,0,0,0,1.94,0l8.46-8.44a1.4,1.4,0,0,0,0-1.94Z" transform="translate(0 0)"/><path class="cls-1" d="M135.71,114.07a1.43,1.43,0,0,0,1,.4,1.41,1.41,0,0,0,1-.4l8.45-8.44a1.3,1.3,0,0,0,.4-1,1.35,1.35,0,0,0-.4-.92l-8.45-8.44a1.41,1.41,0,0,0-1-.4,1.43,1.43,0,0,0-1,.4l-8.46,8.44a1.39,1.39,0,0,0-.39.92,1.33,1.33,0,0,0,.39,1Z" transform="translate(0 0)"/></svg>